<?xml version="1.0" encoding="UTF-8" standalone="no"?>
<!-- Created with Inkscape (http://www.inkscape.org/) -->

<svg
   width="130mm"
   height="30mm"
   viewBox="0 0 130 30"
   version="1.1"
   id="svg1106"
   inkscape:version="1.2.1 (9c6d41e410, 2022-07-14)"
   sodipodi:docname="drawing-4.svg"
   xmlns:inkscape="http://www.inkscape.org/namespaces/inkscape"
   xmlns:sodipodi="http://sodipodi.sourceforge.net/DTD/sodipodi-0.dtd"
   xmlns="http://www.w3.org/2000/svg"
   xmlns:svg="http://www.w3.org/2000/svg">
  <sodipodi:namedview
     id="namedview1108"
     pagecolor="#ffffff"
     bordercolor="#000000"
     borderopacity="0.25"
     inkscape:showpageshadow="2"
     inkscape:pageopacity="0.0"
     inkscape:pagecheckerboard="0"
     inkscape:deskcolor="#d1d1d1"
     inkscape:document-units="mm"
     showgrid="false"
     inkscape:zoom="2.0762433"
     inkscape:cx="241.3012"
     inkscape:cy="61.408989"
     inkscape:window-width="1920"
     inkscape:window-height="1011"
     inkscape:window-x="-9"
     inkscape:window-y="-9"
     inkscape:window-maximized="1"
     inkscape:current-layer="layer1" />
  <defs
     id="defs1103" />
  <g
     inkscape:label="Layer 1"
     inkscape:groupmode="layer"
     id="layer1">
    <g
       aria-label="galaxy guitar"
       id="text293"
       style="font-size:17.1949px;font-family:'Fugaz One';-inkscape-font-specification:'Fugaz One';fill:#3e3264;stroke:#000000;stroke-width:0.226649"
       transform="translate(-29.087355,-166.73496)">
      <path
         d="m 45.210894,186.10247 q -0.378288,2.18375 -1.736685,3.45617 -1.341203,1.27242 -3.077888,1.27242 -1.736685,0 -2.510455,-0.63621 -0.756576,-0.63621 -0.756576,-1.6679 0,-1.51316 1.925829,-2.63082 -1.461566,-0.46427 -1.461566,-2.21815 0,-0.42987 0.08597,-0.94572 l 0.343898,-2.0118 q 0.275119,-1.54754 1.272423,-2.45887 0.997304,-0.92852 2.579235,-0.92852 1.599126,0 2.183752,0.77377 l 0.10317,-0.55024 h 2.56204 z m -4.539454,-3.74849 q -0.03439,0.15475 -0.03439,0.42987 0,0.27512 0.257924,0.55024 0.257923,0.25792 0.859745,0.25792 0.619016,0 1.066083,-0.48146 l 0.515847,-2.88874 q -0.240728,-0.42987 -0.911329,-0.42987 -0.670601,0 -1.048889,0.34389 -0.378288,0.3439 -0.481457,0.92853 z m 0.120364,6.01821 q 1.117669,0 1.461567,-2.029 l 0.171949,-0.9973 q -2.390091,1.11767 -2.390091,2.25253 0,0.3439 0.189143,0.55024 0.206339,0.22353 0.567432,0.22353 z"
         id="path403" />
      <path
         d="m 55.287092,183.17933 q 0,0.44707 0.447067,0.44707 0.464263,0 0.773771,-0.17195 l -0.08598,1.94302 q -0.825355,0.67061 -1.857049,0.67061 -1.891439,0 -2.097778,-1.3756 -0.859745,1.3756 -2.52765,1.3756 -2.819964,0 -2.819964,-2.42449 0,-0.41267 0.08597,-0.91133 l 0.361092,-2.0118 q 0.275119,-1.54754 1.255228,-2.45887 0.997304,-0.92852 2.579235,-0.92852 1.599126,0 2.166558,0.73938 l 0.08597,-0.51585 h 2.613625 l -0.962914,5.41639 q -0.0172,0.10317 -0.0172,0.20634 z m -5.089691,-0.82535 q -0.03439,0.15475 -0.03439,0.42987 0,0.27512 0.257924,0.55024 0.257923,0.25792 0.859745,0.25792 0.619016,0 1.066084,-0.48146 l 0.515847,-2.88874 q -0.189144,-0.42987 -0.894135,-0.42987 -1.324007,0 -1.547541,1.27242 z"
         id="path405" />
      <path
         d="m 60.772252,183.17933 q 0,0.44707 0.447068,0.44707 0.464262,0 0.77377,-0.17195 l -0.08597,1.94302 q -0.825355,0.67061 -1.857049,0.67061 -1.564736,0 -2.028999,-0.72219 -0.292313,-0.46426 -0.292313,-1.0145 0,-0.55024 0.06878,-0.96291 l 1.874244,-10.59206 h 2.923133 l -1.805465,10.19657 q -0.0172,0.10317 -0.0172,0.20634 z"
         id="path407" />
      <path
         d="m 71.123587,183.17933 q 0,0.44707 0.447068,0.44707 0.464262,0 0.77377,-0.17195 l -0.08597,1.94302 q -0.825356,0.67061 -1.85705,0.67061 -1.891439,0 -2.097777,-1.3756 -0.859746,1.3756 -2.527651,1.3756 -2.819964,0 -2.819964,-2.42449 0,-0.41267 0.08597,-0.91133 l 0.361093,-2.0118 q 0.275118,-1.54754 1.255228,-2.45887 0.997304,-0.92852 2.579235,-0.92852 1.599125,0 2.166557,0.73938 l 0.08598,-0.51585 h 2.613625 l -0.962915,5.41639 q -0.0172,0.10317 -0.0172,0.20634 z m -5.08969,-0.82535 q -0.03439,0.15475 -0.03439,0.42987 0,0.27512 0.257923,0.55024 0.257924,0.25792 0.859745,0.25792 0.619017,0 1.066084,-0.48146 l 0.515847,-2.88874 q -0.189144,-0.42987 -0.894135,-0.42987 -1.324007,0 -1.547541,1.27242 z"
         id="path409" />
      <path
         d="m 82.007946,185.82735 h -3.198252 l -1.220838,-2.39009 -2.063388,2.39009 h -3.198251 l 3.714098,-4.22995 -2.235337,-4.16116 h 3.249836 l 1.169253,2.3557 2.011804,-2.3557 h 3.249836 l -3.731293,4.17836 z"
         id="path411" />
      <path
         d="m 86.736538,182.13044 q -0.05159,0.30951 -0.05159,0.61902 0,0.82535 0.928525,0.82535 0.756576,0 1.255228,-0.53304 l 0.962914,-5.48517 h 2.923133 l -1.513151,8.54587 q -0.378288,2.18375 -1.736685,3.45617 -1.341202,1.27242 -3.077887,1.27242 -1.736685,0 -2.510456,-0.63621 -0.756575,-0.63621 -0.756575,-1.6679 0,-1.46157 1.805464,-2.59643 -0.980109,-0.24073 -1.238033,-0.98011 -0.154754,-0.41268 -0.154754,-0.92853 0,-0.51584 0.08598,-1.04889 l 0.962914,-5.41639 h 2.923133 z m 0.08598,6.24175 q 1.117668,0 1.461566,-2.029 l 0.171949,-0.9973 q -2.390091,1.11767 -2.390091,2.25253 0,0.3439 0.189144,0.55024 0.206339,0.22353 0.567432,0.22353 z"
         id="path413" />
      <path
         d="m 104.94593,186.10247 q -0.37829,2.18375 -1.73669,3.45617 -1.3412,1.27242 -3.07788,1.27242 -1.736689,0 -2.510459,-0.63621 -0.756576,-0.63621 -0.756576,-1.6679 0,-1.51316 1.925829,-2.63082 -1.461566,-0.46427 -1.461566,-2.21815 0,-0.42987 0.08597,-0.94572 l 0.343898,-2.0118 q 0.275118,-1.54754 1.272423,-2.45887 0.997311,-0.92852 2.579241,-0.92852 1.59912,0 2.18375,0.77377 l 0.10317,-0.55024 h 2.56204 z m -4.53946,-3.74849 q -0.0344,0.15475 -0.0344,0.42987 0,0.27512 0.25793,0.55024 0.25792,0.25792 0.85974,0.25792 0.61902,0 1.06609,-0.48146 l 0.51584,-2.88874 q -0.24072,-0.42987 -0.91133,-0.42987 -0.6706,0 -1.04888,0.34389 -0.37829,0.3439 -0.48146,0.92853 z m 0.12037,6.01821 q 1.11767,0 1.46157,-2.029 l 0.17194,-0.9973 q -2.390087,1.11767 -2.390087,2.25253 0,0.3439 0.189144,0.55024 0.206343,0.22353 0.567433,0.22353 z"
         id="path415" />
      <path
         d="m 115.24566,183.17933 q 0,0.44707 0.44707,0.44707 0.46426,0 0.77377,-0.17195 l -0.086,1.94302 q -0.82536,0.67061 -1.85705,0.67061 -1.94303,0 -2.11498,-1.49596 -1.03169,1.49596 -2.78557,1.49596 -1.73668,0 -2.25253,-0.79097 -0.3439,-0.49865 -0.3439,-1.13486 0,-0.63621 0.10317,-1.16926 l 0.96291,-5.41639 h 2.92314 l -0.80816,4.57384 q -0.0516,0.30951 -0.0516,0.61902 0,0.82535 0.92853,0.82535 0.77377,0 1.23803,-0.53304 l 0.98011,-5.48517 h 2.92313 l -0.96291,5.41639 q -0.0172,0.10317 -0.0172,0.20634 z"
         id="path417" />
      <path
         d="m 121.1607,183.6264 q 0.39549,0 0.705,-0.17195 l -0.086,1.94302 q -0.80816,0.67061 -1.83985,0.67061 -1.56474,0 -2.029,-0.72219 -0.30951,-0.48146 -0.30951,-1.0145 0,-0.55024 0.0688,-0.96291 l 1.03169,-5.81188 h 2.92314 l -0.96292,5.41639 q -0.0172,0.10317 -0.0172,0.18915 0,0.46426 0.51584,0.46426 z m -2.11497,-8.87257 q 0,-1.10047 0.48146,-1.59912 0.49865,-0.51585 1.53035,-0.51585 1.44437,0 1.44437,1.27242 0,1.08328 -0.49865,1.58193 -0.48146,0.49865 -1.53035,0.49865 -1.42718,0 -1.42718,-1.23803 z"
         id="path419" />
      <path
         d="m 126.59429,186.06808 q -1.99461,0 -2.87155,-0.89414 -0.65341,-0.65341 -0.65341,-1.75388 0,-0.36109 0.0688,-0.77377 l 1.16925,-6.65443 3.14667,-1.30681 -0.49865,2.87155 h 4.74579 l -0.42987,2.42448 h -4.74579 l -0.3439,1.94302 q -0.0688,0.32671 -0.0688,0.58463 0,1.08328 1.03169,1.08328 0.55024,0 0.91133,-0.46426 0.37829,-0.46426 0.51585,-1.23804 h 2.85435 q -0.72218,4.17837 -4.83176,4.17837 z"
         id="path421" />
      <path
         d="m 140.41898,183.17933 q 0,0.44707 0.44707,0.44707 0.46426,0 0.77377,-0.17195 l -0.086,1.94302 q -0.82535,0.67061 -1.85705,0.67061 -1.89143,0 -2.09777,-1.3756 -0.85975,1.3756 -2.52765,1.3756 -2.81997,0 -2.81997,-2.42449 0,-0.41267 0.086,-0.91133 l 0.36109,-2.0118 q 0.27512,-1.54754 1.25523,-2.45887 0.9973,-0.92852 2.57923,-0.92852 1.59913,0 2.16656,0.73938 l 0.086,-0.51585 h 2.61363 l -0.96291,5.41639 q -0.0172,0.10317 -0.0172,0.20634 z m -5.08969,-0.82535 q -0.0344,0.15475 -0.0344,0.42987 0,0.27512 0.25792,0.55024 0.25793,0.25792 0.85975,0.25792 0.61901,0 1.06608,-0.48146 l 0.51585,-2.88874 q -0.18914,-0.42987 -0.89414,-0.42987 -1.324,0 -1.54754,1.27242 z"
         id="path423" />
      <path
         d="m 151.04542,179.31048 q 0,0.58463 -0.20634,1.13486 -0.18915,0.55024 -0.37829,0.80816 l -0.18914,0.24073 h -2.59643 q 0.42987,-0.39548 0.42987,-0.98011 0,-0.30951 -0.20634,-0.49865 -0.18914,-0.20634 -0.53304,-0.20634 -0.58463,0 -1.0145,0.58463 l -0.96292,5.43359 h -2.92313 l 1.46157,-8.27075 h 2.71679 l -0.20634,1.15206 q 0.98011,-1.39279 2.3729,-1.39279 1.11767,0 1.66791,0.53304 0.56743,0.53304 0.56743,1.46157 z"
         id="path425" />
    </g>
  </g>
</svg>
